<?xml version="1.0" encoding="utf-8"?>
<!-- Generator: Adobe Illustrator 19.0.0, SVG Export Plug-In . SVG Version: 6.00 Build 0)  -->
<svg version="1.1" id="图层_1" xmlns="http://www.w3.org/2000/svg" xmlns:xlink="http://www.w3.org/1999/xlink" x="0px" y="0px"
	 width="82px" height="82px" viewBox="0 0 82 82" style="enable-background:new 0 0 82 82;" xml:space="preserve">
<style type="text/css">
	.st0{fill:#00C8DC;}
	.st1{fill:#00A4FF;}
	.st2{fill:#006EFF;}
</style>
<g id="XMLID_1072_">
	<g id="XMLID_1231_">
		<polygon id="XMLID_1232_" class="st0" points="81,50.4 41,73.5 1,50.4 1,58.8 41,81.9 81,58.8 		"/>
	</g>
	<g id="XMLID_1157_">
		<polygon id="XMLID_1158_" class="st1" points="81,34.7 41,57.8 1,34.7 1,43.1 41,66.2 81,43.1 		"/>
	</g>
	<polygon id="XMLID_1156_" class="st2" points="33.7,37.9 8.3,23.2 33.7,8.5 33.7,0.1 1,19 1,19 1,19 1,27.4 1,27.4 1,27.4 
		33.7,46.3 	"/>
	<polygon id="XMLID_1155_" class="st2" points="81,19 48.3,0.1 48.3,8.5 73.7,23.2 48.3,37.9 48.3,46.3 81,27.4 81,27.4 81,27.4 
		81,19 81,19 	"/>
</g>
</svg>
